<svg width="26" height="26" viewBox="0 0 26 26" fill="none" xmlns="http://www.w3.org/2000/svg">
<path d="M23.214 10.9586H22.375V10.9154H13V15.082H18.887C18.0281 17.5076 15.7203 19.2487 13 19.2487C9.54842 19.2487 6.74998 16.4503 6.74998 12.9987C6.74998 9.54714 9.54842 6.7487 13 6.7487C14.5932 6.7487 16.0427 7.34974 17.1463 8.33151L20.0927 5.38516C18.2323 3.6513 15.7437 2.58203 13 2.58203C7.24738 2.58203 2.58331 7.24609 2.58331 12.9987C2.58331 18.7513 7.24738 23.4154 13 23.4154C18.7526 23.4154 23.4166 18.7513 23.4166 12.9987C23.4166 12.3003 23.3448 11.6185 23.214 10.9586Z" fill="#FFC107"/>
<path d="M3.78436 8.15026L7.20676 10.6602C8.1328 8.36745 10.3755 6.7487 13 6.7487C14.5932 6.7487 16.0427 7.34974 17.1463 8.33151L20.0927 5.38516C18.2323 3.6513 15.7437 2.58203 13 2.58203C8.99895 2.58203 5.52915 4.84089 3.78436 8.15026Z" fill="#FF3D00"/>
<path d="M13 23.4185C15.6906 23.4185 18.1354 22.3888 19.9839 20.7143L16.7599 17.9862C15.6791 18.8086 14.3581 19.2533 13 19.2518C10.2906 19.2518 7.9901 17.5242 7.12344 15.1133L3.72656 17.7305C5.45052 21.1039 8.95156 23.4185 13 23.4185Z" fill="#4CAF50"/>
<path d="M23.2141 10.9612H22.375V10.918H13V15.0846H18.887C18.4761 16.239 17.7361 17.2477 16.7583 17.9862L16.7599 17.9852L19.9839 20.7133C19.7557 20.9206 23.4167 18.2096 23.4167 13.0013C23.4167 12.3029 23.3448 11.6211 23.2141 10.9612Z" fill="#1976D2"/>
</svg>
